<mxfile host="app.diagrams.net" modified="2024-03-18T15:00:00.691Z" agent="Mozilla/5.0 (Windows NT 10.0; Win64; x64) AppleWebKit/537.36 (KHTML, like Gecko) Chrome/122.0.0.0 Safari/537.36 Edg/122.0.0.0" etag="wB7Y2JShk0yBbIwsmyqr" version="23.1.6" type="github">
  <diagram name="Page-1" id="e7e014a7-5840-1c2e-5031-d8a46d1fe8dd">
    <mxGraphModel dx="1374" dy="755" grid="1" gridSize="10" guides="1" tooltips="1" connect="1" arrows="1" fold="1" page="1" pageScale="1" pageWidth="1169" pageHeight="826" background="none" math="0" shadow="0">
      <root>
        <mxCell id="0" />
        <mxCell id="1" parent="0" />
        <mxCell id="S707iUgC_ovzpRZuuCWC-81" value="" style="swimlane;childLayout=stackLayout;resizeParent=1;resizeParentMax=0;startSize=20;html=1;" parent="1" vertex="1">
          <mxGeometry x="200" y="40" width="610.0029032258064" height="660" as="geometry">
            <mxRectangle x="200" y="40" width="50" height="40" as="alternateBounds" />
          </mxGeometry>
        </mxCell>
        <mxCell id="S707iUgC_ovzpRZuuCWC-82" value="Người dùng" style="swimlane;startSize=20;html=1;" parent="S707iUgC_ovzpRZuuCWC-81" vertex="1">
          <mxGeometry y="20" width="285.00290322580645" height="640" as="geometry">
            <mxRectangle y="20" width="40" height="460" as="alternateBounds" />
          </mxGeometry>
        </mxCell>
        <mxCell id="13" value="" style="ellipse;shape=startState;fillColor=#000000;strokeColor=#ff0000;" parent="S707iUgC_ovzpRZuuCWC-82" vertex="1">
          <mxGeometry x="140.61064516128988" y="40" width="50.61161290322582" height="49.99999999999999" as="geometry" />
        </mxCell>
        <mxCell id="S707iUgC_ovzpRZuuCWC-54" value="Điền thông tin mà hệ thống yêu cầu" style="rounded=1;whiteSpace=wrap;html=1;arcSize=40;fontColor=#000000;fillColor=#ffffc0;strokeColor=#ff0000;" parent="S707iUgC_ovzpRZuuCWC-82" vertex="1">
          <mxGeometry x="80" y="140" width="161.83" height="40" as="geometry" />
        </mxCell>
        <mxCell id="S707iUgC_ovzpRZuuCWC-75" value="" style="rhombus;whiteSpace=wrap;html=1;fillColor=#ffffc0;strokeColor=#ff0000;fontColor=#000000;rounded=1;arcSize=0;" parent="S707iUgC_ovzpRZuuCWC-82" vertex="1">
          <mxGeometry x="110" y="420" width="60" height="40" as="geometry" />
        </mxCell>
        <mxCell id="S707iUgC_ovzpRZuuCWC-101" style="edgeStyle=orthogonalEdgeStyle;rounded=0;orthogonalLoop=1;jettySize=auto;html=1;exitX=0.5;exitY=1;exitDx=0;exitDy=0;entryX=0.5;entryY=0;entryDx=0;entryDy=0;" parent="S707iUgC_ovzpRZuuCWC-82" source="S707iUgC_ovzpRZuuCWC-99" target="S707iUgC_ovzpRZuuCWC-75" edge="1">
          <mxGeometry relative="1" as="geometry" />
        </mxCell>
        <mxCell id="S707iUgC_ovzpRZuuCWC-99" value="Nhập mã xác nhận" style="whiteSpace=wrap;html=1;fillColor=#ffffc0;strokeColor=#ff0000;fontColor=#000000;rounded=1;arcSize=40;" parent="S707iUgC_ovzpRZuuCWC-82" vertex="1">
          <mxGeometry x="80" y="337" width="120" height="43" as="geometry" />
        </mxCell>
        <mxCell id="S707iUgC_ovzpRZuuCWC-105" value="&lt;font style=&quot;font-size: 12px;&quot;&gt;trong thời gian quy định&lt;/font&gt;" style="text;html=1;align=center;verticalAlign=middle;resizable=0;points=[];autosize=1;strokeColor=none;fillColor=none;" parent="S707iUgC_ovzpRZuuCWC-82" vertex="1">
          <mxGeometry x="135.00290322580645" y="490" width="150" height="30" as="geometry" />
        </mxCell>
        <mxCell id="S707iUgC_ovzpRZuuCWC-83" value="Hệ thống" style="swimlane;startSize=20;html=1;" parent="S707iUgC_ovzpRZuuCWC-81" vertex="1">
          <mxGeometry x="285.00290322580645" y="20" width="325" height="640" as="geometry" />
        </mxCell>
        <mxCell id="S707iUgC_ovzpRZuuCWC-96" style="edgeStyle=orthogonalEdgeStyle;rounded=0;orthogonalLoop=1;jettySize=auto;html=1;exitX=0.5;exitY=1;exitDx=0;exitDy=0;entryX=0.5;entryY=0;entryDx=0;entryDy=0;" parent="S707iUgC_ovzpRZuuCWC-83" source="S707iUgC_ovzpRZuuCWC-90" target="S707iUgC_ovzpRZuuCWC-63" edge="1">
          <mxGeometry relative="1" as="geometry" />
        </mxCell>
        <mxCell id="S707iUgC_ovzpRZuuCWC-90" value="Kiểm tra thông tin đăng ký" style="whiteSpace=wrap;html=1;fillColor=#ffffc0;strokeColor=#ff0000;fontColor=#000000;rounded=1;arcSize=40;" parent="S707iUgC_ovzpRZuuCWC-83" vertex="1">
          <mxGeometry x="75.92" y="180" width="160" height="40" as="geometry" />
        </mxCell>
        <mxCell id="S707iUgC_ovzpRZuuCWC-50" value="Hiển thị màn hình đăng ký tài khoản" style="rounded=1;whiteSpace=wrap;html=1;arcSize=40;fontColor=#000000;fillColor=#ffffc0;strokeColor=#ff0000;" parent="S707iUgC_ovzpRZuuCWC-83" vertex="1">
          <mxGeometry x="80" y="100" width="151.83" height="40" as="geometry" />
        </mxCell>
        <mxCell id="S707iUgC_ovzpRZuuCWC-63" value="" style="rhombus;whiteSpace=wrap;html=1;fillColor=#ffffc0;strokeColor=#ff0000;fontColor=#000000;rounded=1;arcSize=0;" parent="S707iUgC_ovzpRZuuCWC-83" vertex="1">
          <mxGeometry x="124.89999999999999" y="260" width="62.04" height="40" as="geometry" />
        </mxCell>
        <mxCell id="S707iUgC_ovzpRZuuCWC-98" value="không hợp lệ" style="text;html=1;align=center;verticalAlign=middle;resizable=0;points=[];autosize=1;strokeColor=none;fillColor=none;" parent="S707iUgC_ovzpRZuuCWC-83" vertex="1">
          <mxGeometry x="45" y="250" width="90" height="30" as="geometry" />
        </mxCell>
        <mxCell id="S707iUgC_ovzpRZuuCWC-72" value="&lt;font style=&quot;font-size: 12px;&quot;&gt;hợp lệ&lt;/font&gt;" style="text;html=1;align=center;verticalAlign=middle;resizable=0;points=[];autosize=1;strokeColor=none;fillColor=none;" parent="S707iUgC_ovzpRZuuCWC-83" vertex="1">
          <mxGeometry x="100.00290322580645" y="300.00000000000006" width="60" height="30" as="geometry" />
        </mxCell>
        <mxCell id="S707iUgC_ovzpRZuuCWC-69" value="&lt;font style=&quot;font-size: 12px;&quot;&gt;Gửi mã để kích hoạt tài khoản&lt;/font&gt;" style="rounded=1;whiteSpace=wrap;html=1;arcSize=40;fontColor=#000000;fillColor=#ffffc0;strokeColor=#ff0000;" parent="S707iUgC_ovzpRZuuCWC-83" vertex="1">
          <mxGeometry x="81" y="338.5" width="149.49" height="40" as="geometry" />
        </mxCell>
        <mxCell id="S707iUgC_ovzpRZuuCWC-71" value="" style="edgeStyle=orthogonalEdgeStyle;rounded=0;orthogonalLoop=1;jettySize=auto;html=1;" parent="S707iUgC_ovzpRZuuCWC-83" source="S707iUgC_ovzpRZuuCWC-63" target="S707iUgC_ovzpRZuuCWC-69" edge="1">
          <mxGeometry relative="1" as="geometry" />
        </mxCell>
        <mxCell id="S707iUgC_ovzpRZuuCWC-78" value="&lt;font style=&quot;font-size: 12px;&quot;&gt;quá thời gian quy định&lt;/font&gt;" style="text;html=1;align=center;verticalAlign=middle;resizable=0;points=[];autosize=1;strokeColor=none;fillColor=none;" parent="S707iUgC_ovzpRZuuCWC-83" vertex="1">
          <mxGeometry x="10.002903225806449" y="410" width="140" height="30" as="geometry" />
        </mxCell>
        <mxCell id="S707iUgC_ovzpRZuuCWC-62" value="" style="edgeStyle=orthogonalEdgeStyle;rounded=0;orthogonalLoop=1;jettySize=auto;html=1;" parent="S707iUgC_ovzpRZuuCWC-81" source="S707iUgC_ovzpRZuuCWC-50" target="S707iUgC_ovzpRZuuCWC-54" edge="1">
          <mxGeometry relative="1" as="geometry" />
        </mxCell>
        <mxCell id="S707iUgC_ovzpRZuuCWC-89" style="edgeStyle=orthogonalEdgeStyle;rounded=0;orthogonalLoop=1;jettySize=auto;html=1;exitX=1;exitY=0.5;exitDx=0;exitDy=0;entryX=0.5;entryY=0;entryDx=0;entryDy=0;" parent="S707iUgC_ovzpRZuuCWC-81" source="13" target="S707iUgC_ovzpRZuuCWC-50" edge="1">
          <mxGeometry relative="1" as="geometry" />
        </mxCell>
        <mxCell id="S707iUgC_ovzpRZuuCWC-95" style="edgeStyle=orthogonalEdgeStyle;rounded=0;orthogonalLoop=1;jettySize=auto;html=1;exitX=0.5;exitY=1;exitDx=0;exitDy=0;entryX=0;entryY=0.5;entryDx=0;entryDy=0;" parent="S707iUgC_ovzpRZuuCWC-81" source="S707iUgC_ovzpRZuuCWC-54" target="S707iUgC_ovzpRZuuCWC-90" edge="1">
          <mxGeometry relative="1" as="geometry" />
        </mxCell>
        <mxCell id="S707iUgC_ovzpRZuuCWC-100" value="" style="edgeStyle=orthogonalEdgeStyle;rounded=0;orthogonalLoop=1;jettySize=auto;html=1;" parent="S707iUgC_ovzpRZuuCWC-81" source="S707iUgC_ovzpRZuuCWC-69" target="S707iUgC_ovzpRZuuCWC-99" edge="1">
          <mxGeometry relative="1" as="geometry" />
        </mxCell>
        <mxCell id="S707iUgC_ovzpRZuuCWC-102" style="edgeStyle=orthogonalEdgeStyle;rounded=0;orthogonalLoop=1;jettySize=auto;html=1;exitX=1;exitY=0.5;exitDx=0;exitDy=0;entryX=0.5;entryY=1;entryDx=0;entryDy=0;" parent="S707iUgC_ovzpRZuuCWC-81" source="S707iUgC_ovzpRZuuCWC-75" target="S707iUgC_ovzpRZuuCWC-69" edge="1">
          <mxGeometry relative="1" as="geometry" />
        </mxCell>
        <mxCell id="S707iUgC_ovzpRZuuCWC-107" style="edgeStyle=orthogonalEdgeStyle;rounded=0;orthogonalLoop=1;jettySize=auto;html=1;exitX=0;exitY=0.5;exitDx=0;exitDy=0;entryX=0;entryY=0.5;entryDx=0;entryDy=0;" parent="S707iUgC_ovzpRZuuCWC-81" source="S707iUgC_ovzpRZuuCWC-63" target="S707iUgC_ovzpRZuuCWC-54" edge="1">
          <mxGeometry relative="1" as="geometry" />
        </mxCell>
        <mxCell id="S707iUgC_ovzpRZuuCWC-47" value="" style="ellipse;shape=endState;fillColor=#000000;strokeColor=#ff0000" parent="1" vertex="1">
          <mxGeometry x="314.6906451612903" y="610.0000000000001" width="50.61161290322582" height="49.99999999999999" as="geometry" />
        </mxCell>
        <mxCell id="S707iUgC_ovzpRZuuCWC-104" style="edgeStyle=orthogonalEdgeStyle;rounded=0;orthogonalLoop=1;jettySize=auto;html=1;exitX=0.5;exitY=1;exitDx=0;exitDy=0;entryX=0.5;entryY=0;entryDx=0;entryDy=0;" parent="1" source="S707iUgC_ovzpRZuuCWC-75" target="S707iUgC_ovzpRZuuCWC-47" edge="1">
          <mxGeometry relative="1" as="geometry" />
        </mxCell>
      </root>
    </mxGraphModel>
  </diagram>
</mxfile>
